<?xml version="1.0" standalone="no"?>
<!DOCTYPE svg PUBLIC "-//W3C//DTD SVG 20010904//EN"
 "http://www.w3.org/TR/2001/REC-SVG-20010904/DTD/svg10.dtd">
<svg version="1.0" xmlns="http://www.w3.org/2000/svg"
 width="2363.000000pt" height="2363.000000pt" viewBox="0 0 2363.000000 2363.000000"
 preserveAspectRatio="xMidYMid meet">
<metadata>
Created by potrace 1.14, written by Peter Selinger 2001-2017
</metadata>
<g transform="translate(0.000000,2363.000000) scale(0.100000,-0.100000)"
fill="#000000" stroke="none">
<path d="M11348 23625 c-2 -2 -59 -6 -128 -9 -178 -9 -385 -22 -460 -31 -19
-2 -70 -7 -113 -10 -43 -4 -86 -8 -95 -10 -9 -1 -51 -6 -92 -10 -41 -4 -82 -8
-90 -10 -9 -2 -43 -6 -75 -10 -33 -4 -67 -9 -76 -10 -9 -2 -40 -6 -70 -10 -30
-3 -92 -12 -139 -20 -47 -8 -105 -17 -130 -20 -25 -3 -52 -8 -60 -10 -8 -2
-31 -7 -50 -10 -30 -5 -69 -12 -230 -42 -14 -2 -44 -8 -68 -14 -23 -5 -59 -12
-80 -15 -20 -3 -40 -8 -43 -10 -4 -2 -24 -6 -45 -10 -22 -3 -66 -12 -99 -21
-33 -8 -70 -17 -83 -19 -34 -7 -201 -48 -317 -79 -55 -15 -107 -28 -115 -30
-87 -18 -748 -225 -815 -255 -11 -5 -54 -21 -95 -35 -41 -14 -82 -28 -90 -32
-8 -3 -17 -7 -20 -8 -6 -2 -27 -10 -125 -48 -86 -32 -414 -167 -480 -197 -256
-115 -355 -162 -590 -281 -179 -90 -290 -150 -530 -284 -203 -113 -676 -414
-935 -596 -141 -99 -465 -343 -585 -440 -80 -65 -401 -334 -405 -339 -3 -3
-48 -44 -100 -91 -302 -268 -732 -704 -1006 -1019 -21 -25 -41 -47 -44 -50 -4
-4 -158 -188 -222 -265 -138 -167 -437 -564 -548 -729 -36 -53 -70 -102 -75
-109 -14 -17 -186 -283 -292 -453 -386 -615 -796 -1472 -1050 -2194 -93 -263
-239 -723 -258 -810 -2 -8 -13 -51 -24 -95 -12 -44 -23 -87 -25 -95 -3 -8 -16
-62 -31 -120 -23 -95 -106 -461 -120 -535 -60 -314 -110 -624 -131 -810 -3
-33 -8 -67 -9 -75 -2 -8 -6 -44 -10 -80 -3 -36 -8 -76 -10 -90 -2 -14 -7 -61
-10 -105 -4 -44 -9 -93 -11 -110 -2 -16 -6 -68 -9 -115 -3 -47 -8 -107 -10
-135 -15 -200 -20 -380 -20 -795 0 -495 4 -615 31 -935 3 -38 7 -92 9 -120 7
-94 16 -180 20 -205 2 -14 7 -52 10 -85 7 -67 34 -286 40 -325 3 -14 7 -43 10
-65 4 -22 13 -83 22 -135 8 -52 17 -108 20 -125 2 -16 11 -68 20 -115 8 -47
17 -96 20 -110 11 -62 74 -368 83 -399 5 -20 11 -47 14 -61 8 -41 12 -59 51
-210 20 -80 38 -152 40 -160 73 -309 365 -1172 486 -1438 16 -34 29 -65 29
-68 0 -7 70 -168 116 -269 15 -33 28 -62 29 -65 12 -37 248 -516 335 -680 94
-176 281 -501 360 -624 8 -13 33 -52 54 -87 273 -441 706 -1026 1069 -1444
258 -296 703 -755 937 -967 52 -47 120 -108 150 -136 30 -27 71 -62 90 -78 19
-16 42 -36 50 -44 50 -52 565 -464 694 -555 16 -11 40 -29 55 -40 70 -56 512
-357 584 -400 24 -14 165 -103 207 -131 40 -26 429 -254 434 -254 1 0 56 -30
122 -66 129 -71 548 -282 654 -328 36 -16 103 -47 149 -68 274 -127 698 -291
1081 -418 236 -79 608 -191 673 -204 7 -2 32 -8 57 -15 25 -7 52 -14 60 -16 8
-2 60 -15 115 -29 94 -23 403 -91 525 -115 30 -6 69 -13 85 -16 35 -7 358 -64
395 -70 31 -5 160 -23 220 -30 25 -3 52 -8 60 -10 8 -2 46 -6 83 -10 37 -3 77
-8 88 -10 11 -2 48 -7 82 -10 34 -3 78 -7 97 -9 35 -4 143 -14 230 -21 41 -3
160 -12 295 -20 323 -21 1027 -21 1335 0 25 2 90 6 145 9 55 3 120 8 145 11
25 2 79 7 120 10 41 4 91 8 110 10 83 8 157 17 180 20 14 2 52 7 85 10 64 7
105 13 145 20 14 2 48 7 75 10 82 11 95 13 230 35 72 11 145 23 164 26 28 5
257 49 361 70 99 20 254 56 435 101 77 19 147 36 155 38 32 8 200 55 285 80
50 15 97 28 105 30 61 14 576 187 606 203 10 5 21 10 24 10 8 1 29 8 120 42
152 57 208 78 247 95 21 9 47 21 58 25 63 24 353 149 425 183 47 21 114 53
150 69 82 37 482 237 495 248 6 4 55 31 110 60 97 51 398 225 500 288 28 17
70 43 95 58 191 115 703 468 895 616 468 364 783 636 1145 992 157 155 330
334 450 466 47 51 90 98 95 104 6 6 43 49 84 96 40 47 85 98 98 113 160 185
470 585 655 847 225 318 517 784 683 1090 37 69 84 154 103 190 109 198 324
650 426 895 7 17 23 55 36 85 13 30 29 69 36 85 96 225 272 725 377 1075 79
261 216 803 241 953 3 15 7 35 10 45 3 9 7 34 11 56 3 21 7 41 9 45 2 3 7 29
10 56 4 28 9 57 12 66 2 10 6 31 9 48 2 17 6 38 9 48 3 10 8 36 11 58 3 22 17
110 30 195 13 85 27 175 30 200 6 56 11 94 30 235 3 22 8 65 11 95 3 30 7 73
9 95 2 22 7 74 10 115 3 41 8 93 10 115 4 35 8 92 20 275 22 331 22 1042 0
1345 -1 22 -6 92 -10 155 -3 63 -8 129 -10 145 -2 17 -6 68 -10 115 -4 47 -8
94 -10 106 -2 11 -6 52 -10 90 -3 38 -8 85 -11 104 -6 42 -11 77 -18 145 -3
28 -8 61 -10 75 -3 14 -8 48 -11 75 -10 83 -55 364 -70 435 -3 14 -7 39 -10
55 -2 17 -16 86 -30 155 -14 69 -28 134 -29 145 -19 103 -112 488 -162 664
-20 69 -37 133 -39 141 -23 103 -257 808 -304 915 -5 11 -44 108 -86 215 -43
107 -85 213 -95 235 -10 22 -34 78 -54 124 -66 150 -128 282 -248 521 -109
218 -151 298 -237 455 -155 281 -517 863 -543 873 -4 2 -8 8 -8 14 0 12 -199
293 -334 473 -87 116 -377 478 -431 540 -15 17 -48 55 -73 85 -45 53 -182 206
-287 320 -76 83 -540 547 -621 620 -39 36 -93 85 -120 110 -27 25 -83 74 -124
110 -41 36 -77 67 -80 71 -24 26 -408 338 -505 410 -33 24 -62 46 -65 50 -3 3
-50 38 -105 79 -55 40 -122 90 -150 110 -286 210 -793 532 -1160 735 -127 70
-175 95 -390 205 -247 126 -479 234 -695 325 -74 31 -144 61 -155 65 -89 40
-135 58 -135 53 0 -3 -6 -1 -12 4 -7 6 -65 29 -128 52 -63 23 -126 47 -140 53
-105 44 -626 214 -800 262 -30 8 -122 33 -205 55 -193 53 -629 155 -745 175
-14 2 -72 13 -130 24 -127 25 -169 33 -195 37 -27 3 -104 15 -135 20 -14 2
-56 9 -95 15 -77 12 -94 15 -175 25 -30 3 -62 8 -70 10 -8 3 -42 7 -75 10 -33
3 -80 8 -105 11 -25 3 -61 7 -80 9 -117 14 -418 39 -630 52 -85 5 -1087 13
-1092 8z"/>
</g>
</svg>
